<svg id="Capa_1" enable-background="new 0 0 512 512" height="512" viewBox="0 0 512 512" width="512" xmlns="http://www.w3.org/2000/svg"><g><g><path d="m256 70.13s-185.87-1.01-248.5 185.87c62.63 186.88 248.5 185.87 248.5 185.87s185.87 1.01 248.5-185.87c-62.63-186.88-248.5-185.87-248.5-185.87z" fill="#9dc6fb"/></g><g><path d="m399.739 115.979c14.677 28.36 22.939 60.286 22.939 94.059 0 117.437-99.724 212.639-222.741 212.639-16.288 0-32.162-1.685-47.456-4.853 55.469 24.306 103.519 24.046 103.519 24.046s185.87 1.01 248.5-185.87c-23.226-69.305-63.402-112.763-104.761-140.021z" fill="#80b4fb"/></g><g><path d="m378.4 256c0-7.959-.773-15.739-2.23-23.278l21.472-20.299-33.081-57.298-28.384 8.466c-11.69-10.156-25.321-18.131-40.251-23.297l-6.844-28.746h-66.162l-6.844 28.746c-14.93 5.166-28.561 13.141-40.251 23.297l-28.384-8.466-33.081 57.298 21.472 20.299c-1.458 7.539-2.23 15.32-2.23 23.278s.773 15.739 2.23 23.278l-21.472 20.299 33.081 57.298 28.384-8.466c11.69 10.156 25.321 18.131 40.251 23.297l6.844 28.746h66.162l6.844-28.746c14.93-5.166 28.561-13.141 40.251-23.297l28.384 8.466 33.081-57.298-21.472-20.299c1.457-7.539 2.23-15.319 2.23-23.278z" fill="#dd5790"/></g><g><path d="m378.4 256c0-7.873-.759-15.571-2.186-23.034-14.085 77.691-82.073 136.611-163.826 136.611-.689 0-1.373-.018-2.06-.026 1.893.764 3.809 1.484 5.747 2.155l6.844 28.746h66.162l6.844-28.746c14.93-5.166 28.561-13.141 40.251-23.297l28.384 8.466 33.081-57.298-21.472-20.299c1.458-7.539 2.231-15.319 2.231-23.278z" fill="#da387d"/></g><g><circle cx="256" cy="256" fill="#f6e266" r="87.113"/></g><g><path d="m305.33 184.208c9.656 14.026 15.321 31.013 15.321 49.329 0 48.111-39.002 87.113-87.113 87.113-18.316 0-35.303-5.665-49.329-15.321 15.708 22.816 41.997 37.784 71.792 37.784 48.111 0 87.113-39.002 87.113-87.113-.001-29.795-14.968-56.084-37.784-71.792z" fill="#f1d333"/></g><g><path d="m104.99 381.777c-41.269-30.623-71.395-72.931-89.57-125.777 25.408-73.916 73.244-126.357 142.211-155.882 52.025-22.272 97.374-22.487 98.391-22.487h.024c1.14 0 61.39.328 123.029 34.605 3.619 2.013 8.186.709 10.199-2.91 2.013-3.62.71-8.187-2.91-10.2-65.513-36.431-127.83-36.492-130.323-36.496-1.996.02-48.65.009-103.742 23.454-32.41 13.793-60.957 32.878-84.848 56.726-29.841 29.788-52.404 67.068-67.062 110.807-.519 1.546-.519 3.22 0 4.767 19.077 56.925 51.263 102.493 95.661 135.439 1.344.997 2.91 1.478 4.464 1.478 2.293 0 4.558-1.048 6.028-3.031 2.469-3.327 1.774-8.025-1.552-10.493z"/><path d="m511.612 253.617c-18.98-56.633-50.947-102.042-95.012-134.965-3.319-2.479-8.018-1.798-10.497 1.519-2.479 3.318-1.8 8.018 1.519 10.498 40.955 30.601 70.875 72.757 88.958 125.331-25.408 73.916-73.244 126.357-142.211 155.882-52.035 22.276-97.391 22.487-98.392 22.487-.009 0-.01-.001-.024 0-1.138 0-60.98-.324-122.397-34.246-3.626-2.003-8.188-.687-10.191 2.939-2.002 3.625-.687 8.188 2.939 10.191 64.129 35.42 124.968 36.116 129.469 36.116h.187c1.968-.003 48.642-.004 103.742-23.454 32.41-13.793 60.957-32.879 84.848-56.726 29.841-29.788 52.404-67.068 67.062-110.807.518-1.546.518-3.219 0-4.765z"/><path d="m404.136 208.672-33.081-57.298c-1.736-3.007-5.309-4.429-8.639-3.437l-24.508 7.309c-10.757-8.768-22.707-15.686-35.623-20.619l-5.908-24.817c-.804-3.379-3.823-5.763-7.296-5.763h-66.162c-3.473 0-6.492 2.384-7.296 5.763l-5.908 24.817c-12.916 4.934-24.866 11.851-35.623 20.619l-24.508-7.309c-3.325-.993-6.901.429-8.639 3.437l-33.081 57.298c-1.736 3.008-1.181 6.814 1.343 9.2l18.536 17.524c-1.091 6.808-1.643 13.719-1.643 20.604s.552 13.796 1.643 20.604l-18.536 17.524c-2.523 2.386-3.079 6.192-1.343 9.2l33.081 57.298c1.737 3.008 5.31 4.433 8.639 3.437l24.508-7.309c10.757 8.768 22.707 15.686 35.623 20.619l5.908 24.817c.804 3.379 3.823 5.763 7.296 5.763h66.162c3.473 0 6.492-2.384 7.296-5.763l5.908-24.817c12.916-4.934 24.866-11.851 35.623-20.619l24.508 7.309c3.323.993 6.901-.429 8.639-3.437l33.081-57.298c1.736-3.008 1.181-6.814-1.343-9.2l-18.536-17.524c1.091-6.808 1.643-13.719 1.643-20.604s-.552-13.796-1.643-20.604l18.536-17.524c2.524-2.386 3.079-6.192 1.343-9.2zm-33.119 18.599c-1.864 1.763-2.698 4.355-2.211 6.874 1.39 7.185 2.094 14.538 2.094 21.854s-.704 14.669-2.094 21.854c-.487 2.519.347 5.111 2.211 6.874l17.167 16.229-27.157 47.037-22.707-6.772c-2.463-.735-5.125-.157-7.062 1.525-11.165 9.7-23.878 17.059-37.784 21.871-2.424.838-4.25 2.856-4.844 5.351l-5.472 22.983h-54.314l-5.472-22.983c-.594-2.494-2.42-4.512-4.844-5.351-13.906-4.812-26.619-12.171-37.784-21.871-1.937-1.683-4.599-2.26-7.062-1.525l-22.707 6.772-27.157-47.037 17.167-16.229c1.864-1.763 2.698-4.355 2.211-6.874-1.39-7.185-2.094-14.538-2.094-21.854s.704-14.669 2.094-21.854c.487-2.519-.347-5.111-2.211-6.874l-17.167-16.229 27.157-47.037 22.707 6.772c2.462.734 5.125.158 7.062-1.525 11.165-9.7 23.878-17.059 37.784-21.871 2.424-.838 4.25-2.856 4.844-5.351l5.472-22.983h54.314l5.472 22.983c.594 2.494 2.42 4.512 4.844 5.351 13.906 4.812 26.619 12.171 37.784 21.871 1.938 1.683 4.599 2.261 7.062 1.525l22.707-6.772 27.157 47.037z"/><path d="m256 161.39c-52.168 0-94.61 42.442-94.61 94.61 0 18.852 5.53 37.058 15.993 52.649 2.308 3.439 6.968 4.356 10.406 2.049 3.439-2.308 4.357-6.968 2.049-10.407-8.798-13.111-13.448-28.427-13.448-44.291 0-43.897 35.713-79.61 79.61-79.61s79.61 35.713 79.61 79.61-35.713 79.61-79.61 79.61c-15.54 0-30.593-4.477-43.532-12.945-3.465-2.269-8.114-1.298-10.383 2.168s-1.298 8.114 2.168 10.383c15.388 10.071 33.281 15.395 51.747 15.395 52.168 0 94.61-42.442 94.61-94.61s-42.442-94.611-94.61-94.611z"/><path d="m212.311 299.689c1.465 1.464 3.385 2.197 5.304 2.197s3.839-.732 5.304-2.197l63.968-63.969v11.188c0 4.142 3.357 7.5 7.5 7.5s7.5-3.358 7.5-7.5v-29.295c0-4.142-3.357-7.5-7.5-7.5h-29.294c-4.143 0-7.5 3.358-7.5 7.5s3.357 7.5 7.5 7.5h11.187l-63.969 63.969c-2.929 2.93-2.929 7.679 0 10.607z"/></g></g></svg>