<svg id="Layer_1" data-name="Layer 1" xmlns="http://www.w3.org/2000/svg" viewBox="0 0 512 512"><defs><style>.cls-1{fill:#ffdd15;}.cls-2{fill:#8bc53f;}.cls-3{fill:#dfdfdd;}.cls-4{fill:#fff;}.cls-5{fill:#6d6e70;}</style></defs><title>agriculture2</title><g id="Filled_outline" data-name="Filled outline"><path class="cls-1" d="M56,224H456a32,32,0,0,1,32,32h0a32,32,0,0,1-32,32H56a32,32,0,0,1-32-32h0A32,32,0,0,1,56,224Z"/><path class="cls-2" d="M88,72h0V64a40,40,0,0,1,40-40h0v8A40,40,0,0,1,88,72Z"/><path class="cls-2" d="M88,136h0v-8a40,40,0,0,1,40-40h0v8A40,40,0,0,1,88,136Z"/><path class="cls-2" d="M88,200h0v-8a40,40,0,0,1,40-40h0v8A40,40,0,0,1,88,200Z"/><path class="cls-2" d="M48,24A40,40,0,0,1,88,64v8h0A40,40,0,0,1,48,32V24Z"/><path class="cls-2" d="M48,88a40,40,0,0,1,40,40v8h0A40,40,0,0,1,48,96V88Z"/><path class="cls-2" d="M48,152a40,40,0,0,1,40,40v8h0a40,40,0,0,1-40-40v-8Z"/><path class="cls-2" d="M200,72h0V64a40,40,0,0,1,40-40h0v8A40,40,0,0,1,200,72Z"/><path class="cls-2" d="M200,136h0v-8a40,40,0,0,1,40-40h0v8A40,40,0,0,1,200,136Z"/><path class="cls-2" d="M200,200h0v-8a40,40,0,0,1,40-40h0v8A40,40,0,0,1,200,200Z"/><path class="cls-2" d="M160,24a40,40,0,0,1,40,40v8h0a40,40,0,0,1-40-40V24Z"/><path class="cls-2" d="M160,88a40,40,0,0,1,40,40v8h0a40,40,0,0,1-40-40V88Z"/><path class="cls-2" d="M160,152a40,40,0,0,1,40,40v8h0a40,40,0,0,1-40-40v-8Z"/><path class="cls-2" d="M312,72h0V64a40,40,0,0,1,40-40h0v8A40,40,0,0,1,312,72Z"/><path class="cls-2" d="M312,136h0v-8a40,40,0,0,1,40-40h0v8A40,40,0,0,1,312,136Z"/><path class="cls-2" d="M312,200h0v-8a40,40,0,0,1,40-40h0v8A40,40,0,0,1,312,200Z"/><path class="cls-2" d="M272,24a40,40,0,0,1,40,40v8h0a40,40,0,0,1-40-40V24Z"/><path class="cls-2" d="M272,88a40,40,0,0,1,40,40v8h0a40,40,0,0,1-40-40V88Z"/><path class="cls-2" d="M272,152a40,40,0,0,1,40,40v8h0a40,40,0,0,1-40-40v-8Z"/><path class="cls-2" d="M424,72h0V64a40,40,0,0,1,40-40h0v8A40,40,0,0,1,424,72Z"/><path class="cls-2" d="M424,136h0v-8a40,40,0,0,1,40-40h0v8A40,40,0,0,1,424,136Z"/><path class="cls-2" d="M424,200h0v-8a40,40,0,0,1,40-40h0v8A40,40,0,0,1,424,200Z"/><path class="cls-2" d="M384,24a40,40,0,0,1,40,40v8h0a40,40,0,0,1-40-40V24Z"/><path class="cls-2" d="M384,88a40,40,0,0,1,40,40v8h0a40,40,0,0,1-40-40V88Z"/><path class="cls-2" d="M384,152a40,40,0,0,1,40,40v8h0a40,40,0,0,1-40-40v-8Z"/><rect class="cls-3" x="96" y="256" width="320" height="216" rx="24"/><path class="cls-4" d="M136,256H376V472H136Z"/><path class="cls-5" d="M328,312a24,24,0,0,0-48,0,16,16,0,0,0,0,32h48a16,16,0,0,0,0-32Z"/><path class="cls-1" d="M143,384a17,17,0,0,0-12,5L96,424V344L73.37,366.63A32,32,0,0,0,64,389.26V496h64v-8a43.26,43.26,0,0,0,0-48l27-27a17,17,0,0,0-12-29Z"/><path class="cls-1" d="M438.63,366.63,416,344v80l-35-35a17,17,0,0,0-29,12h0a17,17,0,0,0,5,12l27,27a43.26,43.26,0,0,0,0,48v8h64V389.26A32,32,0,0,0,438.63,366.63Z"/><path d="M56,296H72V280H56a24,24,0,0,1,0-48H80v16H96V232h96v16H120a32,32,0,0,0-32,32V424a8,8,0,0,0,13.66,5.66l35-35a9,9,0,0,1,12.68,12.68l-27,27a8,8,0,0,0-1,10.1,35.14,35.14,0,0,1,0,39.12A8.07,8.07,0,0,0,120,488v8h16v-5.69A51.3,51.3,0,0,0,140.7,480H352V464H144V435.31l16.69-16.68A25,25,0,0,0,144,376V264H368V376a25,25,0,0,0-16.69,42.6l22.7,22.7a51.11,51.11,0,0,0,2,49V496h16v-8a8.07,8.07,0,0,0-1.34-4.44,35.14,35.14,0,0,1,0-39.12,8,8,0,0,0-1-10.1l-27-27a9,9,0,0,1,12.68-12.68h0l35,35A8,8,0,0,0,424,424V363.31l9,9a23.85,23.85,0,0,1,7,17V496h16V389.26A39.73,39.73,0,0,0,444.28,361L424,340.69V280a32,32,0,0,0-32-32H320V232h96v16h16V232h24a24,24,0,0,1,0,48H440v16h16a40,40,0,0,0,0-80H432v-8.68A48.06,48.06,0,0,0,472,160v-8a8,8,0,0,0-8-8,47.8,47.8,0,0,0-32,12.26V143.32A48.06,48.06,0,0,0,472,96V88a8,8,0,0,0-8-8,47.8,47.8,0,0,0-32,12.26V79.32A48.06,48.06,0,0,0,472,32V24a8,8,0,0,0-8-8,48,48,0,0,0-40,21.51A48,48,0,0,0,384,16a8,8,0,0,0-8,8v8a48.06,48.06,0,0,0,40,47.32V92.26A47.8,47.8,0,0,0,384,80a8,8,0,0,0-8,8v8a48.06,48.06,0,0,0,40,47.32v12.94A47.8,47.8,0,0,0,384,144a8,8,0,0,0-8,8v8a48.06,48.06,0,0,0,40,47.32V216H320v-8.68A48.06,48.06,0,0,0,360,160v-8a8,8,0,0,0-8-8,47.8,47.8,0,0,0-32,12.26V143.32A48.06,48.06,0,0,0,360,96V88a8,8,0,0,0-8-8,47.8,47.8,0,0,0-32,12.26V79.32A48.06,48.06,0,0,0,360,32V24a8,8,0,0,0-8-8,48,48,0,0,0-40,21.51A48,48,0,0,0,272,16a8,8,0,0,0-8,8v8a48.06,48.06,0,0,0,40,47.32V92.26A47.8,47.8,0,0,0,272,80a8,8,0,0,0-8,8v8a48.06,48.06,0,0,0,40,47.32v12.94A47.8,47.8,0,0,0,272,144a8,8,0,0,0-8,8v8a48.06,48.06,0,0,0,40,47.32V216H208v-8.68A48.06,48.06,0,0,0,248,160v-8a8,8,0,0,0-8-8,47.8,47.8,0,0,0-32,12.26V143.32A48.06,48.06,0,0,0,248,96V88a8,8,0,0,0-8-8,47.8,47.8,0,0,0-32,12.26V79.32A48.06,48.06,0,0,0,248,32V24a8,8,0,0,0-8-8,48,48,0,0,0-40,21.51A48,48,0,0,0,160,16a8,8,0,0,0-8,8v8a48.06,48.06,0,0,0,40,47.32V92.26A47.8,47.8,0,0,0,160,80a8,8,0,0,0-8,8v8a48.06,48.06,0,0,0,40,47.32v12.94A47.8,47.8,0,0,0,160,144a8,8,0,0,0-8,8v8a48.06,48.06,0,0,0,40,47.32V216H96v-8.68A48.06,48.06,0,0,0,136,160v-8a8,8,0,0,0-8-8,47.8,47.8,0,0,0-32,12.26V143.32A48.06,48.06,0,0,0,136,96V88a8,8,0,0,0-8-8A47.8,47.8,0,0,0,96,92.26V79.32A48.06,48.06,0,0,0,136,32V24a8,8,0,0,0-8-8A48,48,0,0,0,88,37.51,48,48,0,0,0,48,16a8,8,0,0,0-8,8v8A48.06,48.06,0,0,0,80,79.32V92.26A47.8,47.8,0,0,0,48,80a8,8,0,0,0-8,8v8a48.06,48.06,0,0,0,40,47.32v12.94A47.8,47.8,0,0,0,48,144a8,8,0,0,0-8,8v8a48.06,48.06,0,0,0,40,47.32V216H56a40,40,0,0,0,0,80Zm72,85c-.92.7-24,23.66-24,23.66V280a16,16,0,0,1,16-16h8ZM384,264h8a16,16,0,0,1,16,16V404.69s-23.08-23-24-23.66Zm72-103a32,32,0,0,1-24,30A32,32,0,0,1,456,161Zm0-64a32,32,0,0,1-24,30A32,32,0,0,1,456,97Zm0-64a32,32,0,0,1-24,30A32,32,0,0,1,456,33Zm-64,0a32,32,0,0,1,24,30A32,32,0,0,1,392,33Zm0,64a32,32,0,0,1,24,30A32,32,0,0,1,392,97Zm0,64a32,32,0,0,1,24,30A32,32,0,0,1,392,161Zm-48,0a32,32,0,0,1-24,30A32,32,0,0,1,344,161Zm0-64a32,32,0,0,1-24,30A32,32,0,0,1,344,97Zm0-64a32,32,0,0,1-24,30A32,32,0,0,1,344,33Zm-64,0a32,32,0,0,1,24,30A32,32,0,0,1,280,33Zm0,64a32,32,0,0,1,24,30A32,32,0,0,1,280,97Zm0,64a32,32,0,0,1,24,30A32,32,0,0,1,280,161Zm-48,0a32,32,0,0,1-24,30A32,32,0,0,1,232,161Zm0-64a32,32,0,0,1-24,30A32,32,0,0,1,232,97Zm0-64a32,32,0,0,1-24,30A32,32,0,0,1,232,33ZM208,232h96v16H208ZM168,33a32,32,0,0,1,24,30A32,32,0,0,1,168,33Zm0,64a32,32,0,0,1,24,30A32,32,0,0,1,168,97Zm0,64a32,32,0,0,1,24,30A32,32,0,0,1,168,161Zm-48,0a32,32,0,0,1-24,30A32,32,0,0,1,120,161Zm0-64a32,32,0,0,1-24,30A32,32,0,0,1,120,97Zm0-64A32,32,0,0,1,96,63,32,32,0,0,1,120,33ZM56,33A32,32,0,0,1,80,63,32,32,0,0,1,56,33Zm0,64a32,32,0,0,1,24,30A32,32,0,0,1,56,97Zm0,64a32,32,0,0,1,24,30A32,32,0,0,1,56,161ZM70.84,357.84l11.32,11.32L79,372.28a23.85,23.85,0,0,0-7,17V496H56V389.26A39.73,39.73,0,0,1,67.72,361ZM176,280v16H160V280Zm32,16H192V280h16Zm32,0H224V280h16Zm112,32a24,24,0,0,0-16.74-22.88,32,32,0,0,0-62.51,0A24,24,0,0,0,280,352h48A24,24,0,0,0,352,328Zm-80,0a8,8,0,0,1,8-8,8,8,0,0,0,8-8,16,16,0,0,1,32,0,8,8,0,0,0,8,8,8,8,0,0,1,0,16H280A8,8,0,0,1,272,328Zm8,56H264V368h16Zm-24,16h16v16H256Zm56-16H296V368h16Zm-24,16h16v16H288Zm56-16H328V368h16Zm-8,32H320V400h16ZM160,320h40v16H160Zm80,48H160V352h80Zm0,32H184V384h56Zm-64,16h64v16H176Z"/></g></svg>