<?xml version="1.0" encoding="utf-8"?>
<!-- Generator: Adobe Illustrator 23.0.3, SVG Export Plug-In . SVG Version: 6.00 Build 0)  -->
<svg version="1.1" id="Layer_5" xmlns="http://www.w3.org/2000/svg" xmlns:xlink="http://www.w3.org/1999/xlink" x="0px" y="0px"
	 viewBox="0 0 512 512" style="enable-background:new 0 0 512 512;" xml:space="preserve">
<style type="text/css">
	.st0{fill:#8BC53F;}
	.st1{fill:#FFDD15;}
	.st2{fill:#6D6E70;}
</style>
<path class="st0" d="M480,64l-80,40V88H176V40h224V24L480,64z"/>
<path class="st0" d="M504,424v48H280v16l-80-40l80-40v16H504z"/>
<path class="st1" d="M272,344V184c0-8.1,6.1-14.8,14-15.8c-27.9-34.3-70.3-56.2-118-56.2c-83.9,0-152,68.1-152,152s68.1,152,152,152
	c47.6,0,90.1-21.9,118-56.2C278.1,358.8,272,352.1,272,344z"/>
<path class="st2" d="M488,360H288c-8.8,0-16-7.2-16-16V184c0-8.8,7.2-16,16-16h200c8.8,0,16,7.2,16,16v160
	C504,352.8,496.8,360,488,360z"/>
<path class="st1" d="M352,168h64v48h-64V168z"/>
<path d="M392,116.9L497.9,64L392,11.1V32H240v16h168V36.9L462.1,64L408,91.1V80H176v16h216V116.9z"/>
<path d="M208,32h16v16h-16V32z"/>
<path d="M176,32h16v16h-16V32z"/>
<path d="M288,395.1L182.1,448L288,500.9V480h152v-16H272v11.1L217.9,448l54.1-27.1V432h232v-16H288V395.1z"/>
<path d="M456,464h16v16h-16V464z"/>
<path d="M488,464h16v16h-16V464z"/>
<path d="M392,320h16v16h-16V320z"/>
<path d="M424,320h16v16h-16V320z"/>
<path d="M456,320h16v16h-16V320z"/>
<path d="M392,288h80v16h-80V288z"/>
<path d="M480,160h-56h-80h-54.6c-30.5-35.6-74.5-56-121.4-56C79.8,104,8,175.8,8,264s71.8,160,160,160c46.9,0,90.9-20.4,121.4-56
	H480c13.2,0,24-10.8,24-24V184C504,170.8,493.2,160,480,160z M408,176v32h-48v-32H408z M272.9,165.5c-3.4,2.7-6,6.3-7.4,10.5h-43.6
	c-5.3-21.2-12.7-39.6-22-52.5C227.7,129.8,253.1,144.3,272.9,165.5z M264,336h-38.6c3.9-20.2,6.1-42.2,6.5-64H264V336z M168,408
	c-13.5,0-27.9-21.1-37.4-56h74.8C195.9,386.9,181.5,408,168,408z M126.8,336c-3.8-18.6-6.2-40.2-6.6-64h95.7
	c-0.5,23.8-2.8,45.4-6.6,64H126.8z M24.4,272h79.7c0.4,21.8,2.6,43.8,6.5,64H43.5C32.4,317,25.7,295.2,24.4,272z M168,120
	c13.5,0,27.9,21.1,37.4,56h-74.8C140.1,141.1,154.5,120,168,120z M209.2,192c3.8,18.6,6.2,40.2,6.6,64h-95.7
	c0.5-23.8,2.8-45.4,6.6-64H209.2z M104.1,256H24.4c1.3-23.2,8-45,19.1-64h67.1C106.7,212.2,104.5,234.2,104.1,256z M264,256h-32.1
	c-0.4-21.8-2.6-43.8-6.5-64H264V256z M136,123.7c-9.3,12.9-16.6,31.2-21.9,52.3H54.3C74.4,150.1,103,131.2,136,123.7z M54.3,352
	h59.8c5.3,21.1,12.6,39.4,21.9,52.3C103,396.8,74.4,377.9,54.3,352z M199.9,404.5c9.3-12.9,16.7-31.2,22-52.5h43.6
	c1.5,4.2,4.1,7.8,7.4,10.5C253.1,383.7,227.7,398.2,199.9,404.5z M488,344c0,4.4-3.6,8-8,8H288c-4.4,0-8-3.6-8-8V184
	c0-4.4,3.6-8,8-8h56v48h80v-48h56c4.4,0,8,3.6,8,8V344z"/>
<path d="M136,288h16v16h-16V288z"/>
<path d="M168,288h16v16h-16V288z"/>
<path d="M184,224h16v16h-16V224z"/>
<path d="M152,224h16v16h-16V224z"/>
</svg>
