<?xml version="1.0" encoding="utf-8"?>
<!-- Generator: Adobe Illustrator 23.0.3, SVG Export Plug-In . SVG Version: 6.00 Build 0)  -->
<svg version="1.1" id="Layer_1" xmlns="http://www.w3.org/2000/svg" xmlns:xlink="http://www.w3.org/1999/xlink" x="0px" y="0px"
	 viewBox="0 0 512 512" style="enable-background:new 0 0 512 512;" xml:space="preserve">
<style type="text/css">
	.st0{fill:#6D6E70;}
	.st1{fill:#8BC53F;}
	.st2{fill:#F3F3F3;}
	.st3{fill:#FFDD15;}
	.st4{fill:#A28B00;}
	.st5{fill:#E4E4E4;}
</style>
<g>
	<path class="st0" d="M169.4,22.5V329h-30V22.5c0-8.3,6.7-15,15-15C162.7,7.5,169.4,14.2,169.4,22.5z"/>
	<path class="st1" d="M408.9,214.6H169.4v-186h239.5c2.6,0,4.2,2.7,3.1,5l-41.4,85.3c-0.8,1.7-0.8,3.7,0,5.4l41.4,85.3
		C413.1,211.9,411.4,214.6,408.9,214.6L408.9,214.6z"/>
	<path class="st2" d="M348.8,28.6h-50.5l-43.8,90.3c-0.8,1.7-0.8,3.7,0,5.4l43.8,90.3h50.5l-43.8-90.3c-0.8-1.7-0.8-3.7,0-5.4
		L348.8,28.6z"/>
	<path class="st3" d="M438,474.5H208v-74.4c0-41.1,33.3-74.5,74.5-74.5h81c41.1,0,74.5,33.3,74.5,74.5L438,474.5L438,474.5z"/>
	<path class="st4" d="M363.5,325.7h-30c41.1,0,74.5,33.3,74.5,74.5v74.4h30v-74.4C438,359,404.6,325.7,363.5,325.7z"/>
	<path class="st2" d="M438,400.1v38.1c-19.2,0-19.2-20-38.3-20c-19.2,0-19.2,20-38.3,20c-19.2,0-19.2-20-38.3-20s-19.2,20-38.3,20
		c-19.2,0-19.2-20-38.3-20c-19.2,0-19.2,20-38.3,20v-38.1c0-41.1,33.3-74.5,74.5-74.5h81C404.6,325.7,438,359,438,400.1L438,400.1z"
		/>
	<g>
		<path class="st5" d="M363.5,325.7h-30c41.1,0,74.5,33.4,74.5,74.5v19.6c11.4,4.7,14.1,18.4,30,18.4v-38.1
			C438,359,404.6,325.7,363.5,325.7z"/>
	</g>
	<path class="st3" d="M284,474.5H54V343.9c0-41.1,33.3-74.5,74.5-74.5h81c41.1,0,74.5,33.3,74.5,74.5L284,474.5z"/>
	<path class="st4" d="M209.6,269.4h-30c41.1,0,74.5,33.3,74.5,74.5v130.6h30V343.9C284,302.7,250.7,269.4,209.6,269.4L209.6,269.4z"
		/>
	<path class="st2" d="M284,343.9v38.1c-19.2,0-19.2-20-38.3-20c-19.2,0-19.2,20-38.3,20c-19.2,0-19.2-20-38.3-20s-19.2,20-38.3,20
		c-19.2,0-19.2-20-38.3-20c-19.2,0-19.2,20-38.3,20v-38.1c0-41.1,33.3-74.5,74.5-74.5h81C250.7,269.4,284,302.7,284,343.9z"/>
	<g>
		<path class="st5" d="M209.6,269.4h-30c41.1,0,74.5,33.4,74.5,74.5v19.6c11.4,4.7,14.1,18.4,30,18.4v-38.1
			C284,302.7,250.7,269.4,209.6,269.4L209.6,269.4z"/>
	</g>
	<path class="st0" d="M489.5,504.5h-467c-8.3,0-15-6.7-15-15s6.7-15,15-15h467c8.3,0,15,6.7,15,15S497.8,504.5,489.5,504.5z"/>
	<path d="M489.5,467h-44v-66.9c0-45.2-36.8-82-82-82h-76.1c-10.8-32.6-41.6-56.3-77.8-56.3h-32.6v-39.8h232c3.8,0,7.3-1.9,9.3-5.1
		s2.2-7.2,0.6-10.6l-41.1-84.7l41.1-84.7c1.7-3.4,1.4-7.4-0.6-10.6c-2-3.2-5.5-5.1-9.3-5.1H256c-4.1,0-7.5,3.4-7.5,7.5
		s3.4,7.5,7.5,7.5h30.3l-38.6,79.5c-1.8,3.8-1.8,8.2,0,12l38.6,79.5H176.9v-171h47.2c4.1,0,7.5-3.4,7.5-7.5s-3.4-7.5-7.5-7.5h-47.2
		c-0.3-5.5-2.6-10.6-6.5-14.5c-4.3-4.3-9.9-6.6-15.9-6.6c-12.4,0-22.5,10.1-22.5,22.5v239.4h-3.4c-45.2,0-82,36.8-82,82v56.2
		c0,4.1,3.4,7.5,7.5,7.5s7.5-3.4,7.5-7.5v-11.5c8.1-2,13-7.1,17.1-11.4c4.8-5.1,7.7-7.7,13.8-7.7s8.9,2.6,13.8,7.7
		c5.3,5.5,11.8,12.3,24.6,12.3c12.8,0,19.3-6.8,24.6-12.3c4.8-5.1,7.7-7.7,13.8-7.7s8.9,2.6,13.8,7.7c5.3,5.5,11.8,12.3,24.6,12.3
		c12.8,0,19.3-6.8,24.6-12.3c4.8-5.1,7.6-7.7,13.7-7.7c6.1,0,8.9,2.6,13.8,7.7c4.1,4.3,9,9.4,17.1,11.4V467h-215v-35.2
		c0-4.1-3.4-7.5-7.5-7.5s-7.5,3.4-7.5,7.5V467h-24C10.1,467,0,477.1,0,489.5S10.1,512,22.5,512h393.4c4.1,0,7.5-3.4,7.5-7.5
		s-3.4-7.5-7.5-7.5H22.5c-4.1,0-7.5-3.4-7.5-7.5s3.4-7.5,7.5-7.5h467c4.1,0,7.5,3.4,7.5,7.5s-3.4,7.5-7.5,7.5h-41.4
		c-4.1,0-7.5,3.4-7.5,7.5s3.4,7.5,7.5,7.5h41.4c12.4,0,22.5-10.1,22.5-22.5S501.9,467,489.5,467z M363.8,115.6
		c-1.8,3.8-1.8,8.2,0,12l38.6,79.5h-49L312,121.6l41.5-85.5h49L363.8,115.6z M261.5,121.6L303,36.1h33.8l-38.6,79.5
		c-1.8,3.8-1.8,8.2,0,12l38.6,79.5H303L261.5,121.6z M363.5,333.2c36.9,0,67,30,67,67v28.5c-2-1.3-3.9-3.2-6.2-5.6
		c-5.3-5.5-11.8-12.3-24.6-12.3c-12.8,0-19.3,6.8-24.6,12.3c-4.8,5.1-7.7,7.7-13.8,7.7c-6.1,0-8.9-2.6-13.7-7.7
		c-5.3-5.5-11.8-12.3-24.6-12.3s-19.3,6.8-24.6,12.3c-2.6,2.7-4.6,4.7-6.8,6v-85.2c0-3.6-0.3-7.2-0.7-10.7L363.5,333.2z M146.9,22.5
		c0-4.1,3.4-7.5,7.5-7.5c2,0,3.9,0.8,5.3,2.2c1.4,1.4,2.2,3.3,2.2,5.3v239.4h-15V22.5z M270.3,366.8c-5.3-5.5-11.8-12.3-24.6-12.3
		c-12.8,0-19.3,6.8-24.6,12.3c-4.8,5.1-7.7,7.7-13.8,7.7c-6.1,0-8.9-2.6-13.7-7.7c-5.3-5.5-11.8-12.3-24.6-12.3
		c-12.8,0-19.3,6.8-24.6,12.3c-4.8,5.1-7.6,7.7-13.7,7.7c-6.1,0-8.9-2.6-13.8-7.7c-5.3-5.5-11.8-12.3-24.6-12.3s-19.3,6.8-24.6,12.3
		c-2.4,2.5-4.2,4.4-6.3,5.6v-28.5c0-36.9,30-67,67-67h81c36.9,0,67,30,67,67v28.5C274.5,371.1,272.7,369.2,270.3,366.8L270.3,366.8z
		 M291.5,467v-22c8.4-1.9,13.5-7.2,17.7-11.6c4.8-5.1,7.7-7.7,13.8-7.7s8.9,2.6,13.8,7.7c5.3,5.5,11.8,12.3,24.6,12.3
		c12.8,0,19.3-6.8,24.6-12.3c4.8-5.1,7.6-7.7,13.7-7.7c6.1,0,8.9,2.6,13.8,7.7c4.1,4.3,9,9.4,17.1,11.4V467H291.5z"/>
</g>
</svg>
