<?xml version="1.0" encoding="utf-8"?>
<!-- Generator: Adobe Illustrator 23.0.3, SVG Export Plug-In . SVG Version: 6.00 Build 0)  -->
<svg version="1.1" id="Capa_1" xmlns="http://www.w3.org/2000/svg" xmlns:xlink="http://www.w3.org/1999/xlink" x="0px" y="0px"
	 viewBox="0 0 512 512" style="enable-background:new 0 0 512 512;" xml:space="preserve">
<style type="text/css">
	.st0{fill:#8BC53F;}
	.st1{fill:#C8EA73;}
	.st2{fill:#B7E445;}
	.st3{fill:#6D6E70;}
	.st4{fill:#FFDD15;}
</style>
<g>
	<g>
		<path class="st0" d="M504.5,256H292.4V74.2h212.1l-30.3,90.9L504.5,256z"/>
	</g>
	<g>
		<path class="st0" d="M397.4,219.6L292.4,256v-36.4H397.4z"/>
	</g>
	<g>
		<path class="st0" d="M225.7,37.8h171.7v181.8H225.7V37.8z"/>
	</g>
	<g>
		<path class="st1" d="M7.5,304.5h32.3v152.6H7.5V304.5z"/>
	</g>
	<g>
		<path class="st2" d="M7.5,381.1v76h32.3v-56.8C27.2,396.1,16.2,389.7,7.5,381.1z"/>
	</g>
	<g>
		<path class="st3" d="M215.6,504.5h-20.2c-5.6,0-10.1-4.5-10.1-10.1V17.6c0-5.6,4.5-10.1,10.1-10.1h20.2c5.6,0,10.1,4.5,10.1,10.1
			v476.8C225.7,500,221.2,504.5,215.6,504.5L215.6,504.5z"/>
	</g>
	<g>
		<path class="st4" d="M285.8,335.8h-19.7c11.4,0,20.6-9.4,20.2-20.9c-0.4-10.9-9.7-19.5-20.7-19.5h-80.3V255h-26.9
			c-8.8,0-17.3,2.9-24.3,8.2l-44,33.2c-7,5.3-15.6,8.2-24.3,8.2H39.8v152.6l205.6-0.1c11,0,20.3-8.5,20.7-19.5
			c0.4-11.5-8.8-20.9-20.2-20.9h19.7c11,0,20.3-8.5,20.7-19.5c0.4-11.5-8.8-20.9-20.2-20.9h20.2c11.4,0,20.6-9.4,20.2-20.9
			C306.1,344.3,296.8,335.8,285.8,335.8z"/>
	</g>
	<path d="M482.1,165.1l29.5-88.5c0.8-2.3,0.4-4.8-1-6.8c-1.4-2-3.7-3.1-6.1-3.1h-99.6V37.8c0-4.1-3.4-7.5-7.5-7.5h-95.6
		c-4.1,0-7.5,3.4-7.5,7.5s3.4,7.5,7.5,7.5h88.1v166.8H233.2V45.3h33.6c4.1,0,7.5-3.4,7.5-7.5s-3.4-7.5-7.5-7.5h-33.6V17.6
		c0-9.7-7.9-17.6-17.6-17.6h-20.2c-9.7,0-17.6,7.9-17.6,17.6v229.9h-19.4c-10.4,0-20.6,3.4-28.9,9.7l-8.2,6.2
		c-3.3,2.5-4,7.2-1.5,10.5c1.5,2,3.7,3,6,3c1.6,0,3.2-0.5,4.5-1.5l8.2-6.2c5.7-4.3,12.7-6.6,19.8-6.6h19.4v25.4H161
		c-4.1,0-7.5,3.4-7.5,7.5s3.4,7.5,7.5,7.5h104.6c7,0,12.9,5.5,13.2,12.2c0.1,3.5-1.1,6.8-3.5,9.3c-2.4,2.5-5.7,3.9-9.1,3.9
		c0,0,0,0-0.1,0h-80.8c-4.1,0-7.5,3.4-7.5,7.5s3.4,7.5,7.5,7.5l100.5,0c7,0,12.9,5.5,13.2,12.2c0.1,3.5-1.1,6.8-3.6,9.3
		c-2.4,2.5-5.7,3.9-9.1,3.9h-101c-4.1,0-7.5,3.4-7.5,7.5s3.4,7.5,7.5,7.5h80.8h0c3.5,0,6.7,1.4,9.1,3.9c2.4,2.5,3.7,5.8,3.6,9.3
		c-0.2,6.7-6.2,12.2-13.2,12.2l-80.3,0c-4.1,0-7.5,3.4-7.5,7.5s3.4,7.5,7.5,7.5h60.5c0,0,0.1,0,0.1,0c3.5,0,6.7,1.4,9.1,3.9
		c2.4,2.5,3.7,5.8,3.5,9.3c-0.2,6.7-6.2,12.2-13.2,12.2l-198.1,0.1V312h18.4c10.4,0,20.6-3.4,28.9-9.7l7.8-5.9
		c3.3-2.5,4-7.2,1.5-10.5c-2.5-3.3-7.2-4-10.5-1.5l-7.9,5.9c-5.7,4.3-12.7,6.6-19.8,6.6l-58.3,0c-4.1,0-7.5,3.4-7.5,7.5v152.6
		c0,4.1,3.4,7.5,7.5,7.5l170.3-0.1v29.9c0,9.7,7.9,17.6,17.6,17.6h20.2c9.7,0,17.6-7.9,17.6-17.6v-29.9l12.2,0
		c15,0,27.7-12,28.2-26.7c0.2-5-1-9.8-3.3-14.1c12.9-2.2,23-13.2,23.5-26.3c0.2-5-0.9-9.8-3.2-14c5.9-0.9,11.4-3.7,15.7-8.1
		c5.3-5.5,8-12.6,7.8-20.2c-0.5-13.4-10.4-24.2-23.5-26.3c2.3-4.3,3.4-9.1,3.2-14.1c-0.5-15-12.9-26.7-28.2-26.7h-32.4v-60.8h51.7
		V256c0.1,3.5,2.7,7.5,7.5,7.5h123.2c4.1,0,7.5-3.4,7.5-7.5c0-4.1-3.4-7.5-7.5-7.5H337l62.9-21.8c2.7-0.9,5.2-3.8,5-7.3V81.7h89.2
		l-27,81c-0.5,1.5-0.5,3.2,0,4.7l27,81h-43.5c-4.1,0-7.5,3.4-7.5,7.5c0,4.1,3.4,7.5,7.5,7.5h53.9c2.4,0,4.7-1.2,6.1-3.1
		s1.8-4.5,1-6.8L482.1,165.1z M15,312h17.3v137.6H15L15,312z M218.2,494.4c0,1.4-1.2,2.6-2.6,2.6h-20.2c-1.4,0-2.6-1.2-2.6-2.6
		v-29.9l25.4,0L218.2,494.4z M192.8,287.9V17.6c0-1.4,1.2-2.6,2.6-2.6h20.2c1.4,0,2.6,1.2,2.6,2.6v270.3H192.8z M352.8,227.1
		l-53,18.3v-18.3H352.8z"/>
</g>
</svg>
