<?xml version="1.0" encoding="utf-8"?>
<!-- Generator: Adobe Illustrator 23.0.3, SVG Export Plug-In . SVG Version: 6.00 Build 0)  -->
<svg version="1.1" id="Capa_1" xmlns="http://www.w3.org/2000/svg" xmlns:xlink="http://www.w3.org/1999/xlink" x="0px" y="0px"
	 viewBox="0 0 512 512" style="enable-background:new 0 0 512 512;" xml:space="preserve">
<style type="text/css">
	.st0{fill:#8BC53F;}
	.st1{fill:#FFDD15;}
	.st2{fill:#EDF6FF;}
	.st3{fill:#D8E2F3;}
</style>
<g>
	<g>
		<g>
			<path class="st0" d="M231.2,496.2c0,4.6-3.7,8.3-8.3,8.3h-33.1c-4.6,0-8.3-3.7-8.3-8.3V383.7h49.7L231.2,496.2L231.2,496.2z"/>
			<path class="st1" d="M350.9,471.3H61.7l9.5-33.1h270.3L350.9,471.3z"/>
		</g>
		<path class="st0" d="M357.1,336.7l45,157.2c1.5,5.3-2.5,10.6-8,10.6h-32.5c-3.7,0-6.9-2.5-8-6l-36.2-126.5v-47.8H357L357.1,336.7z
			"/>
		<path class="st0" d="M55.5,336.7l-45,157.2c-1.5,5.3,2.5,10.6,8,10.6H51c3.7,0,6.9-2.5,8-6l36.2-126.5v-47.8H55.6L55.5,336.7z"/>
		<circle class="st1" cx="206.3" cy="206.2" r="198.8"/>
		<circle class="st2" cx="206.3" cy="206.2" r="132.5"/>
		<circle class="st1" cx="206.3" cy="206.2" r="66.3"/>
		<g>
			<path class="st2" d="M372,222.8l30.7,46c1.5,2.3,4.1,3.7,6.9,3.7h86.7c6.6,0,10.6-7.4,6.9-12.9l-24.5-36.8v-33.1l24.5-36.8
				c3.7-5.5-0.3-12.9-6.9-12.9h-86.7c-2.8,0-5.4,1.4-6.9,3.7l-30.7,46L372,222.8z"/>
			<path class="st3" d="M478.6,222.8v-33.1l24.5-36.8c3.7-5.5-0.3-12.9-6.9-12.9h-23c6.6,0,10.6,7.4,6.9,12.9l-24.5,36.8v33.1
				l24.5,36.8c3.7,5.5-0.3,12.9-6.9,12.9h23c6.6,0,10.6-7.4,6.9-12.9L478.6,222.8z"/>
			<path class="st0" d="M479.9,222.8H214.3c-4.4,0-8-3.6-8-8v-17.1c0-4.4,3.6-8,8-8h265.6c4.4,0,8,3.6,8,8v17.1
				C487.9,219.2,484.4,222.8,479.9,222.8z"/>
		</g>
	</g>
	<path d="M490,226.6c3.3-2.8,5.4-7,5.4-11.7v-17.1c0-4.7-2.1-8.9-5.4-11.7l19.3-28.9c3.2-4.9,3.5-11.1,0.8-16.2s-8.1-8.3-13.9-8.3
		h-41.4c0,0,0,0,0,0h-45.2c-3.4,0-6.7,1.1-9.4,3.1c-13.4-36.7-37.4-69.4-68.6-93.3C295.3,14.7,252,0,206.3,0
		c-48.7,0-96,17.3-133.2,48.7c-3.2,2.7-3.6,7.4-0.9,10.6c2.7,3.2,7.4,3.6,10.6,0.9C117.3,31,161.1,15,206.3,15
		c83.8,0,158.5,55.5,183,135.3l-21.3,32h-23.7c-11.5-66.6-69.7-116-138-116c-77.2,0-140,62.8-140,140c0,77.2,62.8,140,140,140
		c68.3,0,126.5-49.4,138-116H368l21.3,32c-24.4,79.8-99.2,135.3-183,135.3C100.8,397.6,15,311.8,15,206.3c0-46.3,16.8-91,47.2-125.9
		c2.7-3.1,2.4-7.9-0.7-10.6c-3.1-2.7-7.9-2.4-10.6,0.7C18.1,108.1,0,156.3,0,206.3c0,49.9,17.8,95.7,47.4,131.5l-28.2,98.4
		c-1.1,4,1.2,8.1,5.1,9.3c0.7,0.2,1.4,0.3,2.1,0.3c3.3,0,6.3-2.1,7.2-5.4l12.6-44.1h34.1L51.7,496.4c-0.1,0.3-0.4,0.6-0.8,0.6H18.5
		c-0.1,0-0.4,0-0.6-0.3c-0.2-0.3-0.2-0.6-0.1-0.7l7.4-25.8c1.1-4-1.2-8.1-5.1-9.3c-4-1.1-8.1,1.2-9.3,5.1l-7.4,25.8
		c-1.4,4.8-0.4,9.9,2.6,13.8c3,4,7.6,6.3,12.6,6.3H51c7,0,13.2-4.7,15.2-11.4l6.2-21.7H174v17.4c0,8.7,7.1,15.8,15.8,15.8h33.1
		c8.7,0,15.8-7.1,15.8-15.8v-17.4h101.6l6.2,21.7c1.9,6.7,8.2,11.4,15.2,11.4h32.5c5,0,9.6-2.3,12.6-6.3s3.9-9,2.6-13.8l-44.1-154.1
		c15-18.1,26.9-38.8,35-60.8c2.7,2,5.9,3.1,9.4,3.1h45.3c0,0,0,0,0,0s0,0,0,0h41.4c5.8,0,11.2-3.2,13.9-8.3
		c2.8-5.1,2.5-11.4-0.8-16.2L490,226.6z M421.7,215.4C421.7,215.4,421.7,215.4,421.7,215.4H372H213.8v-18.1H372h49.7c0,0,0,0,0,0
		s0,0,0,0h56.9h1.4c0.3,0,0.5,0.2,0.5,0.5v17.1c0,0.3-0.2,0.5-0.5,0.5h-1.4H421.7z M206.3,174c-4.1,0-7.5,3.4-7.5,7.5v8.3v9.1h-17.4
		c-4.1,0-7.5,3.4-7.5,7.5s3.4,7.5,7.5,7.5h17.4v9.1v8.3c0,4.1,3.4,7.5,7.5,7.5s7.5-3.4,7.5-7.5v-0.8h46.1
		c-9.3,20.8-30.2,34.7-53.6,34.7c-32.4,0-58.8-26.4-58.8-58.8s26.4-58.8,58.8-58.8c23.5,0,44.3,13.9,53.6,34.7h-46.1v-0.8
		C213.8,177.3,210.4,174,206.3,174z M496.9,147.9c0.2,0.4,0,0.7,0,0.8l-22.3,33.5h-38.9l23.1-34.7h37.4
		C496.4,147.5,496.7,147.5,496.9,147.9L496.9,147.9z M403.6,155.8C403.6,155.8,403.6,155.7,403.6,155.8l5.3-7.9
		c0.1-0.2,0.4-0.3,0.7-0.3h31.3l-23.1,34.7H386L403.6,155.8z M206.3,331.3c-68.9,0-125-56.1-125-125c0-68.9,56.1-125,125-125
		c60.1,0,111.4,42.8,122.7,101h-53c-10.2-29.5-38-49.7-69.7-49.7c-40.7,0-73.8,33.1-73.8,73.8s33.1,73.8,73.8,73.8
		c31.7,0,59.6-20.2,69.7-49.7h53C317.7,288.5,266.4,331.3,206.3,331.3L206.3,331.3z M315,390.8C315,390.8,315,390.8,315,390.8
		l11.4,40h-87.8v-20.6C265,406,290,396.9,312.8,383L315,390.8z M223.7,411.9v18.8H189v-18.9c5.7,0.5,11.5,0.7,17.4,0.7
		C212.1,412.6,217.9,412.4,223.7,411.9L223.7,411.9z M50.6,381.2l8.7-30.4c8.4,8.6,17.6,16.4,27.4,23.4l-2,6.9H50.6z M97.5,391
		C97.5,391,97.5,391,97.5,391l2.3-8c22.3,13.5,47.4,22.9,74.2,27.1v20.7H86.1L97.5,391z M223.7,496.2c0,0.4-0.4,0.8-0.8,0.8h-33.1
		c-0.4,0-0.8-0.4-0.8-0.8v-17.4h34.7L223.7,496.2L223.7,496.2z M76.6,463.9l5.2-18.1h249l5.2,18.1H76.6z M394.7,496.7
		c-0.2,0.3-0.5,0.3-0.6,0.3h-32.5c-0.3,0-0.7-0.2-0.8-0.6L332.2,396h34.1l28.6,100C394.9,496.1,395,496.4,394.7,496.7L394.7,496.7z
		 M362,381h-34.1l-1.9-6.7c1.9-1.3,3.8-2.7,5.6-4.1c7.7-5.9,15-12.4,21.8-19.3L362,381z M408.9,264.7l-5.2-7.8c0,0,0,0,0-0.1
		L386,230.4h31.7l23.1,34.7h-31.3C409.3,265.1,409,264.9,408.9,264.7z M496.9,264.7c-0.2,0.4-0.5,0.4-0.7,0.4h-37.4l-23.1-34.7h38.9
		l22.3,33.5C496.9,264,497.1,264.2,496.9,264.7z"/>
</g>
</svg>
