<?xml version="1.0" encoding="utf-8"?>
<!-- Generator: Adobe Illustrator 23.0.3, SVG Export Plug-In . SVG Version: 6.00 Build 0)  -->
<svg version="1.1" id="filled_outline" xmlns="http://www.w3.org/2000/svg" xmlns:xlink="http://www.w3.org/1999/xlink" x="0px"
	 y="0px" viewBox="0 0 512 512" style="enable-background:new 0 0 512 512;" xml:space="preserve">
<style type="text/css">
	.st0{fill:#8BC53F;}
	.st1{fill:#E5E7E9;}
	.st2{fill:#F6BB00;}
	.st3{fill:#F5C99D;}
	.st4{fill:#6D6E70;}
	.st5{fill:#FFDD15;}
</style>
<path class="st0" d="M264,282.6V488H24V282.6c0-16.5,8.5-31.9,22.6-40.7l22.5-14.1L88,216h112l18.9,11.8l22.5,14.1
	C255.5,250.7,264,266.1,264,282.6z"/>
<polygon class="st1" points="218.9,227.8 160,312 128,312 69.1,227.8 88,216 200,216 "/>
<polygon class="st2" points="120.6,301.5 128,272 120,248 120,232 168,232 168,248 160,272 167.4,301.5 160,312 128,312 "/>
<path class="st3" d="M72,80v88c0,39.8,32.2,72,72,72c0,0,0,0,0,0h0c39.8,0,72-32.2,72-72c0,0,0,0,0,0l0-88l-24-32h-88L72,80z"/>
<path class="st4" d="M216,88h-68c-19.9,0-36-16.1-36-36v-4c0-13.3,10.7-24,24-24h24c30.9,0,56,25.1,56,56V88z"/>
<path class="st4" d="M72,88V56c0-13.3,10.7-24,24-24l0,0c8.8,0,16,7.2,16,16v9.4C112,74.3,98.3,88,81.4,88l0,0H72z"/>
<path class="st5" d="M233,120h-57c-13.3,0-24,10.7-24,24l0,0c0,13.3,10.7,24,24,24h57L233,120z"/>
<path class="st0" d="M160,392h125.1c36.5,0,70.4-19.2,89.2-50.5L416,272l-40-32l-48.1,54.1C317.8,305.5,303.3,312,288,312H160V392z"
	/>
<path class="st0" d="M96,312h77.6c11.9,0,23.3-4.4,32.1-12.3L272,240l40,32l-41.7,69.5c-18.8,31.3-52.6,50.5-89.2,50.5H112
	c-48.6,0-88-39.4-88-88L96,312z"/>
<path class="st0" d="M24,304v184h240v-96H112C63.4,392,24,352.6,24,304z"/>
<path class="st3" d="M368,200l-56,72l-40-32l-1.9-7.5c-4-16-3.4-32.9,1.9-48.5l0,0h96V200z"/>
<path class="st3" d="M456,192L456,192c0,15.6-4.9,30.8-13.9,43.5L416,272l-40-32l-8-40v-16h88V192z"/>
<path class="st5" d="M321,104h-57c-22.1,0-40,17.9-40,40l0,0c0,22.1,17.9,40,40,40h57L321,104z"/>
<path class="st5" d="M432,88h-72c-30.9,0-56,25.1-56,56l0,0v0c0,30.9,25.1,56,56,56l0,0h72V88z"/>
<circle class="st5" cx="432" cy="144" r="56"/>
<rect x="104" y="112" width="32" height="16"/>
<circle cx="120" cy="144" r="8"/>
<path d="M432,80h-72c-15.6,0-30.6,5.7-42.3,16H264c-13.6,0-26.6,5.8-35.7,16H224V80c0-35.3-28.7-64-64-64h-24
	c-10.1,0-19.6,4.8-25.6,12.8c-4.1-3.1-9.2-4.8-14.4-4.8c-17.7,0-32,14.3-32,32v112c0,16,4.8,31.7,13.8,44.9l-35.5,22.2
	c-16.4,10.2-26.4,28.2-26.3,47.5V488c0,4.4,3.6,8,8,8h240c4.4,0,8-3.6,8-8v-88h13.1c39.3-0.1,75.7-20.7,96-54.4l41.5-69.2l25.9-36.2
	c8.6-11.9,13.8-26,15.1-40.6c30.7-17.5,41.5-56.5,24-87.2C476.3,92.3,455,80,432,80z M360,96h29.7c-26.5,23.3-29.1,63.6-5.9,90.1
	c1.8,2.1,3.8,4,5.9,5.9H360c-26.5,0-48-21.5-48-48S333.5,96,360,96z M113.3,79c8.3,10.7,21.1,17,34.7,17h60v16h-32
	c-17.7,0-32,14.3-32,32c0,11.4,6.1,22,16,27.7v4.3c0,4.4-3.6,8-8,8h-8v16h8c13.2,0,24-10.8,24-24h31.5
	c-4.4,35.1-36.4,59.9-71.5,55.5c-32-4-56-31.2-56-63.5V96h1.4C94.2,96,106.1,89.6,113.3,79z M176,160c-8.8,0-16-7.2-16-16
	s7.2-16,16-16h42.8c-3.7,10.4-3.7,21.6,0,32H176z M170.9,282.5l-2.5-10.2l7.3-21.8c0.3-0.8,0.4-1.7,0.4-2.5v-6.7
	c8.8-3.9,16.9-9.3,23.8-16l7.8,4.9L170.9,282.5z M133.8,264l-5.8-17.3v-0.3c10.6,2.1,21.4,2.1,32,0v0.3l-5.8,17.3H133.8z M112,241.3
	v6.7c0,0.9,0.1,1.7,0.4,2.5l7.3,21.8l-2.5,10.2l-36.7-52.4l7.8-4.9C95.1,232,103.2,237.4,112,241.3z M132.2,304l-2.9-4.1l5-19.9
	h19.5l5,19.9l-2.9,4.1H132.2z M221.1,238.6l16.1,10c2.5,1.6,4.9,3.5,7,5.6l-43.9,39.5c-6.9,6.2-15.7,9.8-24.9,10.2L221.1,238.6z
	 M256.1,243.5c-3.1-3.2-6.6-6-10.4-8.4l-35.5-22.2c7.5-11,12.1-23.7,13.4-36.9h4.7c8.5,9.6,20.5,15.3,33.3,15.9
	c-3,14.1-2.7,28.6,0.8,42.5l0.7,2.8L256.1,243.5z M279.1,235.4l-1.2-4.8c-3.2-12.7-3.1-25.9,0.1-38.6h39.8
	c9.6,8.5,21.6,13.9,34.3,15.5l-41.4,53.2L279.1,235.4z M318.6,276.5l45-57.8l3.8,19L322,288.7c-4.9,5.5-11.2,9.8-18.1,12.4
	L318.6,276.5z M264,112h40.6c-11.5,19.8-11.5,44.2,0,64H264c-17.7,0-32-14.3-32-32S246.3,112,264,112z M136,32h24
	c26.5,0,48,21.5,48,48h-60c-15.5,0-28-12.5-28-28v-4C120,39.2,127.2,32,136,32z M96,40c4.4,0,8,3.6,8,8v9.4
	C104,69.9,93.9,80,81.4,80H80V56C80,47.2,87.2,40,96,40z M32,282.6c0-13.8,7.1-26.6,18.8-33.9l16.1-10l45.8,65.4H96v16h77.6
	c13.8,0,27.2-5.1,37.5-14.4l61.3-55.1l29.2,23.4l-38.1,63.5c-17.4,28.8-48.6,46.5-82.3,46.6H112c-44.2,0-80-35.8-80-80V282.6z
	 M256,480H32V357c17.8,26.8,47.8,43,80,43h144V480z M367.4,337.4c-17.4,28.8-48.6,46.5-82.3,46.6h-46.5c15.8-9.4,29-22.6,38.5-38.4
	l15.5-25.8c15.9-1.2,30.7-8.5,41.3-20.4l43-48.4l28.6,22.9L367.4,337.4z M435.5,230.9l-21.1,29.6l-31.1-24.9l-5.5-27.6H432
	c4.9,0,9.7-0.6,14.4-1.7C444.5,215.2,440.8,223.5,435.5,230.9z M432,192c-26.5,0-48-21.5-48-48s21.5-48,48-48s48,21.5,48,48
	C480,170.5,458.5,192,432,192z"/>
<rect x="416" y="152" width="16" height="16"/>
<rect x="448" y="152" width="16" height="16"/>
</svg>
