<?xml version="1.0" encoding="utf-8"?>
<!-- Generator: Adobe Illustrator 23.0.3, SVG Export Plug-In . SVG Version: 6.00 Build 0)  -->
<svg version="1.1" id="Capa_1" xmlns="http://www.w3.org/2000/svg" xmlns:xlink="http://www.w3.org/1999/xlink" x="0px" y="0px"
	 viewBox="0 0 512 512" style="enable-background:new 0 0 512 512;" xml:space="preserve">
<style type="text/css">
	.st0{fill:#8BC53F;}
	.st1{fill:#34D000;}
	.st2{fill:#B0B0B0;}
	.st3{fill:#6D6E70;}
	.st4{fill:#FFDD15;}
	.st5{fill:#F1D333;}
</style>
<g>
	<g>
		<path class="st0" d="M256,70.1c0,0-185.9-1-248.5,185.9C70.1,442.9,256,441.9,256,441.9s185.9,1,248.5-185.9
			C441.9,69.1,256,70.1,256,70.1z"/>
	</g>
	<g>
		<path class="st1" d="M399.7,116c14.7,28.4,22.9,60.3,22.9,94.1c0,117.4-99.7,212.6-222.7,212.6c-16.3,0-32.2-1.7-47.5-4.9
			c55.5,24.3,103.5,24,103.5,24s185.9,1,248.5-185.9C481.3,186.7,441.1,143.2,399.7,116z"/>
	</g>
	<g>
		<path class="st2" d="M378.4,256c0-8-0.8-15.7-2.2-23.3l21.5-20.3l-33.1-57.3l-28.4,8.5c-11.7-10.2-25.3-18.1-40.3-23.3l-6.8-28.7
			h-66.2l-6.8,28.7c-14.9,5.2-28.6,13.1-40.3,23.3l-28.4-8.5l-33.1,57.3l21.5,20.3c-1.5,7.5-2.2,15.3-2.2,23.3
			c0,8,0.8,15.7,2.2,23.3l-21.5,20.3l33.1,57.3l28.4-8.5c11.7,10.2,25.3,18.1,40.3,23.3l6.8,28.7h66.2l6.8-28.7
			c14.9-5.2,28.6-13.1,40.3-23.3l28.4,8.5l33.1-57.3l-21.5-20.3C377.6,271.7,378.4,264,378.4,256z"/>
	</g>
	<g>
		<path class="st3" d="M378.4,256c0-7.9-0.8-15.6-2.2-23c-14.1,77.7-82.1,136.6-163.8,136.6c-0.7,0-1.4,0-2.1,0
			c1.9,0.8,3.8,1.5,5.7,2.2l6.8,28.7h66.2l6.8-28.7c14.9-5.2,28.6-13.1,40.3-23.3l28.4,8.5l33.1-57.3l-21.5-20.3
			C377.6,271.7,378.4,264,378.4,256L378.4,256z"/>
	</g>
	<g>
		<circle class="st4" cx="256" cy="256" r="87.1"/>
	</g>
	<g>
		<path class="st5" d="M305.3,184.2c9.7,14,15.3,31,15.3,49.3c0,48.1-39,87.1-87.1,87.1c-18.3,0-35.3-5.7-49.3-15.3
			c15.7,22.8,42,37.8,71.8,37.8c48.1,0,87.1-39,87.1-87.1C343.1,226.2,328.1,199.9,305.3,184.2L305.3,184.2z"/>
	</g>
	<g>
		<path d="M105,381.8C63.7,351.2,33.6,308.8,15.4,256c25.4-73.9,73.2-126.4,142.2-155.9c52-22.3,97.4-22.5,98.4-22.5h0
			c1.1,0,61.4,0.3,123,34.6c3.6,2,8.2,0.7,10.2-2.9c2-3.6,0.7-8.2-2.9-10.2C320.9,62.7,258.5,62.6,256,62.6c-2,0-48.6,0-103.7,23.5
			c-32.4,13.8-61,32.9-84.8,56.7C37.6,172.6,15,209.9,0.4,253.6c-0.5,1.5-0.5,3.2,0,4.8C19.5,315.3,51.7,360.9,96,393.8
			c1.3,1,2.9,1.5,4.5,1.5c2.3,0,4.6-1,6-3C109,388.9,108.3,384.2,105,381.8L105,381.8z"/>
		<path d="M511.6,253.6c-19-56.6-50.9-102-95-135c-3.3-2.5-8-1.8-10.5,1.5c-2.5,3.3-1.8,8,1.5,10.5c41,30.6,70.9,72.8,89,125.3
			c-25.4,73.9-73.2,126.4-142.2,155.9c-52,22.3-97.4,22.5-98.4,22.5c0,0,0,0,0,0c-1.1,0-61-0.3-122.4-34.2c-3.6-2-8.2-0.7-10.2,2.9
			c-2,3.6-0.7,8.2,2.9,10.2c64.1,35.4,125,36.1,129.5,36.1h0.2c2,0,48.6,0,103.7-23.5c32.4-13.8,61-32.9,84.8-56.7
			c29.8-29.8,52.4-67.1,67.1-110.8C512.1,256.8,512.1,255.2,511.6,253.6L511.6,253.6z"/>
		<path d="M404.1,208.7l-33.1-57.3c-1.7-3-5.3-4.4-8.6-3.4l-24.5,7.3c-10.8-8.8-22.7-15.7-35.6-20.6l-5.9-24.8
			c-0.8-3.4-3.8-5.8-7.3-5.8h-66.2c-3.5,0-6.5,2.4-7.3,5.8l-5.9,24.8c-12.9,4.9-24.9,11.9-35.6,20.6l-24.5-7.3
			c-3.3-1-6.9,0.4-8.6,3.4l-33.1,57.3c-1.7,3-1.2,6.8,1.3,9.2l18.5,17.5c-1.1,6.8-1.6,13.7-1.6,20.6c0,6.9,0.6,13.8,1.6,20.6
			l-18.5,17.5c-2.5,2.4-3.1,6.2-1.3,9.2l33.1,57.3c1.7,3,5.3,4.4,8.6,3.4l24.5-7.3c10.8,8.8,22.7,15.7,35.6,20.6l5.9,24.8
			c0.8,3.4,3.8,5.8,7.3,5.8h66.2c3.5,0,6.5-2.4,7.3-5.8l5.9-24.8c12.9-4.9,24.9-11.9,35.6-20.6l24.5,7.3c3.3,1,6.9-0.4,8.6-3.4
			l33.1-57.3c1.7-3,1.2-6.8-1.3-9.2l-18.5-17.5c1.1-6.8,1.6-13.7,1.6-20.6c0-6.9-0.6-13.8-1.6-20.6l18.5-17.5
			C405.3,215.5,405.9,211.7,404.1,208.7L404.1,208.7z M371,227.3c-1.9,1.8-2.7,4.4-2.2,6.9c1.4,7.2,2.1,14.5,2.1,21.9
			c0,7.3-0.7,14.7-2.1,21.9c-0.5,2.5,0.3,5.1,2.2,6.9l17.2,16.2L361,348l-22.7-6.8c-2.5-0.7-5.1-0.2-7.1,1.5
			c-11.2,9.7-23.9,17.1-37.8,21.9c-2.4,0.8-4.2,2.9-4.8,5.4l-5.5,23h-54.3l-5.5-23c-0.6-2.5-2.4-4.5-4.8-5.4
			c-13.9-4.8-26.6-12.2-37.8-21.9c-1.9-1.7-4.6-2.3-7.1-1.5L151,348l-27.2-47l17.2-16.2c1.9-1.8,2.7-4.4,2.2-6.9
			c-1.4-7.2-2.1-14.5-2.1-21.9c0-7.3,0.7-14.7,2.1-21.9c0.5-2.5-0.3-5.1-2.2-6.9L123.8,211l27.2-47l22.7,6.8
			c2.5,0.7,5.1,0.2,7.1-1.5c11.2-9.7,23.9-17.1,37.8-21.9c2.4-0.8,4.2-2.9,4.8-5.4l5.5-23h54.3l5.5,23c0.6,2.5,2.4,4.5,4.8,5.4
			c13.9,4.8,26.6,12.2,37.8,21.9c1.9,1.7,4.6,2.3,7.1,1.5L361,164l27.2,47L371,227.3z"/>
		<path d="M256,161.4c-52.2,0-94.6,42.4-94.6,94.6c0,18.9,5.5,37.1,16,52.6c2.3,3.4,7,4.4,10.4,2c3.4-2.3,4.4-7,2-10.4
			c-8.8-13.1-13.4-28.4-13.4-44.3c0-43.9,35.7-79.6,79.6-79.6s79.6,35.7,79.6,79.6s-35.7,79.6-79.6,79.6c-15.5,0-30.6-4.5-43.5-12.9
			c-3.5-2.3-8.1-1.3-10.4,2.2s-1.3,8.1,2.2,10.4c15.4,10.1,33.3,15.4,51.7,15.4c52.2,0,94.6-42.4,94.6-94.6S308.2,161.4,256,161.4
			L256,161.4z"/>
		<path d="M212.3,299.7c1.5,1.5,3.4,2.2,5.3,2.2s3.8-0.7,5.3-2.2l64-64v11.2c0,4.1,3.4,7.5,7.5,7.5s7.5-3.4,7.5-7.5v-29.3
			c0-4.1-3.4-7.5-7.5-7.5h-29.3c-4.1,0-7.5,3.4-7.5,7.5s3.4,7.5,7.5,7.5h11.2l-64,64C209.4,292,209.4,296.8,212.3,299.7z"/>
	</g>
</g>
</svg>
